<svg xmlns="http://www.w3.org/2000/svg" xmlns:xlink="http://www.w3.org/1999/xlink" version="1.1" width="256" height="256" viewBox="0 0 256 256" xml:space="preserve">

<defs>
</defs>
<g style="stroke: none; stroke-width: 0; stroke-dasharray: none; stroke-linecap: butt; stroke-linejoin: miter; stroke-miterlimit: 10; fill: none; fill-rule: nonzero; opacity: 1;" transform="translate(1.4065934065934016 1.4065934065934016) scale(2.81 2.81)" >
	<path d="M 84.332 3.291 H 5.668 C 2.542 3.291 0 5.833 0 8.958 v 40.631 v 10.54 c 0 3.125 2.542 5.668 5.668 5.668 h 26.641 c -0.15 3.915 -1.174 7.769 -2.993 11.244 h -2.108 c -3.458 0 -6.272 2.813 -6.272 6.271 v 2.397 c 0 0.553 0.448 1 1 1 h 46.128 c 0.553 0 1 -0.447 1 -1 v -2.397 c 0 -3.458 -2.813 -6.271 -6.272 -6.271 h -2.108 c -1.819 -3.475 -2.843 -7.329 -2.993 -11.244 h 26.641 c 3.125 0 5.668 -2.543 5.668 -5.668 v -10.54 V 8.958 C 90 5.833 87.457 3.291 84.332 3.291 z M 5.668 5.291 h 78.664 C 86.354 5.291 88 6.936 88 8.958 v 39.631 H 2 V 8.958 C 2 6.936 3.646 5.291 5.668 5.291 z M 67.064 83.313 v 1.397 H 22.936 v -1.397 c 0 -2.355 1.917 -4.271 4.272 -4.271 h 2.719 h 30.145 h 2.72 C 65.147 79.041 67.064 80.957 67.064 83.313 z M 58.435 77.041 h -26.87 c 1.677 -3.514 2.62 -7.354 2.758 -11.244 h 21.354 C 55.815 69.688 56.758 73.528 58.435 77.041 z M 88 60.129 c 0 2.022 -1.646 3.668 -3.668 3.668 H 56.659 H 33.341 H 5.668 C 3.646 63.797 2 62.151 2 60.129 v -9.54 h 86 V 60.129 z" style="stroke: none; stroke-width: 1; stroke-dasharray: none; stroke-linecap: butt; stroke-linejoin: miter; stroke-miterlimit: 10; fill: rgb(249,216,118); fill-rule: nonzero; opacity: 1;" transform=" matrix(1 0 0 1 0 0) " stroke-linecap="round" />
	<path d="M 34.177 36.302 c 0.197 0.212 0.464 0.319 0.732 0.319 c 0.244 0 0.489 -0.089 0.681 -0.268 c 0.404 -0.376 0.427 -1.009 0.051 -1.413 L 29.181 28 l 6.46 -6.94 c 0.376 -0.404 0.354 -1.037 -0.051 -1.413 c -0.402 -0.375 -1.036 -0.354 -1.413 0.051 l -7.094 7.621 c -0.357 0.384 -0.357 0.979 0 1.362 L 34.177 36.302 z" style="stroke: none; stroke-width: 1; stroke-dasharray: none; stroke-linecap: butt; stroke-linejoin: miter; stroke-miterlimit: 10; fill: rgb(249,216,118); fill-rule: nonzero; opacity: 1;" transform=" matrix(1 0 0 1 0 0) " stroke-linecap="round" />
	<path d="M 54.409 36.353 c 0.193 0.179 0.438 0.268 0.682 0.268 c 0.268 0 0.535 -0.107 0.731 -0.319 l 7.096 -7.621 c 0.356 -0.384 0.356 -0.979 0 -1.362 l -7.096 -7.621 c -0.375 -0.405 -1.008 -0.427 -1.413 -0.051 c -0.404 0.376 -0.427 1.009 -0.05 1.413 l 6.46 6.94 l -6.46 6.94 C 53.982 35.344 54.005 35.977 54.409 36.353 z" style="stroke: none; stroke-width: 1; stroke-dasharray: none; stroke-linecap: butt; stroke-linejoin: miter; stroke-miterlimit: 10; fill: rgb(249,216,118); fill-rule: nonzero; opacity: 1;" transform=" matrix(1 0 0 1 0 0) " stroke-linecap="round" />
	<path d="M 41.251 38.946 C 41.358 38.983 41.468 39 41.575 39 c 0.416 0 0.804 -0.261 0.946 -0.676 l 6.85 -20 c 0.179 -0.523 -0.1 -1.091 -0.622 -1.271 c -0.524 -0.178 -1.091 0.1 -1.271 0.622 l -6.85 20 C 40.45 38.199 40.729 38.767 41.251 38.946 z" style="stroke: none; stroke-width: 1; stroke-dasharray: none; stroke-linecap: butt; stroke-linejoin: miter; stroke-miterlimit: 10; fill: rgb(249,216,118); fill-rule: nonzero; opacity: 1;" transform=" matrix(1 0 0 1 0 0) " stroke-linecap="round" />
</g>
</svg>